<svg width="761" height="272" viewBox="0 0 761 272" fill="none" xmlns="http://www.w3.org/2000/svg">
<path d="M760.142 137.816C755.9 95.1383 711.209 76.5698 680.178 83.5912C666.984 86.5695 664.987 93.8238 673.04 104.788C674.521 106.802 675.919 108.915 677.732 110.595C687.366 119.563 688.315 130.195 683.706 141.742C669.912 176.334 649.514 206.366 619.764 229.027C584.208 256.115 538.652 254.251 506.107 224.984C493.895 214.003 485.093 200.11 476.724 186.034C464.528 165.502 456.059 142.258 434.113 128.881C435.195 127.849 435.527 127.367 435.993 127.117C461.433 112.642 473.23 78.7827 465.244 53.1097C455.144 20.748 432.35 2.92831 398.557 2.54563C370.305 2.24613 342.036 2.46244 313.768 2.4458C302.703 2.4458 302.637 2.44579 302.603 13.9263C302.487 54.3908 302.354 94.8388 302.337 135.303C302.337 148.88 302.87 162.441 302.753 176.018C302.703 182.124 303.918 185.202 311.106 184.32C317.644 183.521 324.4 184.037 331.022 184.453C336.213 184.786 337.71 182.739 337.594 177.765C337.311 166.118 337.644 154.487 337.428 142.841C337.361 138.631 338.592 137 343.051 137.134C353.018 137.433 363.017 137.483 372.984 137.167C399.439 136.368 419.488 147.366 433.547 169.545C445.095 187.781 455.843 206.549 468.122 224.269C489.636 255.283 520.05 270.823 557.62 271.871C593.093 272.853 621.994 258.378 645.87 232.771C658.266 219.46 672.258 208.329 689.546 201.94C697.915 198.862 706.766 196.3 715.468 197.614C722.04 198.612 721.674 207.231 725.418 211.873C730.792 218.545 735.701 219.244 740.459 212.273C751.54 196.033 746.815 172.989 722.423 165.802C716.666 164.104 713.322 166.916 713.472 173.106C713.522 175.602 713.771 178.097 714.187 180.543C714.703 183.605 713.805 185.152 710.493 185.468C698.081 186.616 686.268 190.143 674.355 194.786C681.676 182.706 687.765 170.244 696.85 159.728C698.481 157.848 700.277 156.101 702.141 154.454C711.825 145.869 716.134 145.37 727.515 151.16C731.707 153.306 735.917 155.419 740.243 157.249C751.973 162.174 757.38 159.279 759.593 146.9C760.126 143.922 760.425 140.794 760.142 137.816ZM430.453 85.4713C422.699 110.312 402.534 124.072 373.3 124.938C363.334 125.237 353.334 124.738 343.384 125.104C338.492 125.304 337.211 123.557 337.261 118.964C337.361 112.043 337.378 105.121 337.378 98.1997C337.378 91.9437 337.361 85.671 337.361 79.4149C337.344 76.2537 337.328 73.0924 337.328 69.9145C337.328 65.6051 337.361 61.2958 337.378 56.9864C337.428 46.055 337.461 35.1236 337.228 24.1922C337.111 18.2856 338.526 15.6733 345.048 15.9229C356.944 16.3555 368.874 16.1392 380.787 15.8896C421.568 15.0744 440.319 53.8584 430.453 85.4713Z" fill="#F6F1E3"/>
<path d="M194.138 176.433C194.221 182.823 192.274 184.686 186.151 184.17C180.095 183.671 173.939 183.704 167.866 184.17C161.942 184.636 160.428 182.49 160.478 176.7C160.761 149.263 160.511 121.81 160.628 94.3729C160.645 89.6476 160.395 86.6859 154.189 86.7025C117.052 86.8856 79.9151 86.7691 42.7783 86.5029C36.3558 86.453 33.7769 87.9505 33.91 95.1882C34.3925 122.059 33.9266 148.947 34.2261 175.834C34.2927 182.207 32.7619 184.986 25.857 184.204C20.1168 183.555 14.1935 183.638 8.42001 184.187C1.78129 184.836 -0.048928 182.39 0.000987143 175.884C0.267201 138.198 0.134072 100.496 0.134072 62.7932C0.134072 45.3395 0.30046 27.8692 0.0342456 10.4156C-0.0489463 5.42406 1.28211 3.22781 6.52321 3.72696C10.3667 4.07637 14.2601 3.72694 18.1202 3.81013C28.6911 4.03198 33.9821 9.60582 33.9932 20.5317C34.0098 36.3215 34.2761 52.128 33.9932 67.9178C33.8934 73.1423 35.6404 74.4567 40.6486 74.4401C78.3345 74.257 116.037 74.2404 153.723 74.4567C159.247 74.49 160.761 72.8262 160.678 67.4021C160.362 48.5508 160.728 29.6995 160.445 10.8648C160.378 5.52387 161.843 3.3609 167.433 3.71031C174.055 4.10963 180.76 4.15954 187.366 3.71031C193.206 3.29435 194.138 5.92321 194.104 10.9813C193.905 38.7008 194.005 66.4037 194.005 94.1233C193.988 121.577 193.788 149.013 194.138 176.45V176.433Z" fill="#F6F1E3"/>
<path d="M642.326 54.1081C618.982 -8.7684 535.507 -10.6818 502.264 30.6812C484.71 52.5108 479.885 77.7179 481.782 104.739C485.06 151.426 517.039 186.566 565.407 185.568C598.767 185.368 624.09 171.259 639.115 141.094C653.207 112.808 653.174 83.3251 642.326 54.1081ZM607.369 140.661C598.384 157.166 585.722 167.515 566.039 167.831C546.705 168.114 532.562 158.963 524.509 142.458C508.204 109.065 507.488 74.7563 526.955 42.5111C546.339 10.4323 589.649 13.4105 607.136 46.8703C614.124 60.2642 617.734 76.1372 617.701 95.1216C617.302 109.763 615.438 125.836 607.369 140.661Z" fill="#F6F1E3"/>
<path d="M264.585 176.35C264.651 182.44 263.104 184.919 256.715 184.353C251.224 183.854 245.617 184.037 240.126 184.586C233.471 185.235 231.774 182.673 231.807 176.201C232.056 125.237 231.923 74.2738 231.973 23.3104C231.973 16.7049 229.777 7.98643 233.105 4.07641C237.065 -0.598976 246.099 3.01157 252.921 2.47914C254.851 2.31276 256.814 2.59559 258.728 2.41257C263.303 2.01325 264.784 3.47744 264.734 8.50223C264.402 36.7542 264.568 65.0061 264.568 93.2581H264.451C264.451 120.961 264.285 148.647 264.585 176.35Z" fill="#F6F1E3"/>
<path d="M337.378 98.1998C337.378 105.121 337.361 112.043 337.261 118.965C337.344 112.043 337.378 105.121 337.378 98.1998Z" fill="#F6F1E3"/>
<path d="M650.734 12.0938H672.25V17.75H665.031V35H657.953V17.75H650.734V12.0938ZM675.391 12.0938H684.703L688.297 26.0312L691.875 12.0938H701.156V35H695.375V17.5312L690.891 35H685.656L681.188 17.5312V35H675.391V12.0938Z" fill="#F6F1E3"/>
</svg>
