<svg width="40" height="40" viewBox="0 0 40 40" fill="none" xmlns="http://www.w3.org/2000/svg">
<path d="M13.1667 33.3333C16.3477 34.9651 20.0068 35.4071 23.4849 34.5796C26.9629 33.7522 30.031 31.7097 32.1363 28.8203C34.2416 25.9309 35.2457 22.3845 34.9677 18.8203C34.6896 15.256 33.1477 11.9083 30.6197 9.38032C28.0918 6.85236 24.744 5.31042 21.1798 5.03236C17.6155 4.7543 14.0692 5.75841 11.1797 7.86374C8.29032 9.96908 6.24786 13.0372 5.42041 16.5152C4.59296 19.9932 5.03494 23.6524 6.66671 26.8333L3.33337 36.6667L13.1667 33.3333Z" stroke="black" stroke-width="2" stroke-linecap="round" stroke-linejoin="round"/>
<path d="M15.15 15C15.5419 13.8861 16.3153 12.9468 17.3333 12.3486C18.3513 11.7503 19.5482 11.5316 20.712 11.7312C21.8758 11.9308 22.9314 12.5359 23.6918 13.4392C24.4523 14.3426 24.8684 15.4859 24.8667 16.6667C24.8667 20 19.8667 21.6667 19.8667 21.6667" stroke="black" stroke-width="2" stroke-linecap="round" stroke-linejoin="round"/>
<path d="M20 28.3333H20.0167" stroke="black" stroke-width="2" stroke-linecap="round" stroke-linejoin="round"/>
</svg>
